<svg width="34" height="34" viewBox="0 0 34 34" fill="none" xmlns="http://www.w3.org/2000/svg">
<path d="M29.6867 4.65222C28.9537 3.81139 28.0833 3.14438 27.1254 2.6893C26.1675 2.23423 25.1407 2 24.1038 2C23.0669 2 22.0402 2.23423 21.0822 2.6893C20.1243 3.14438 19.254 3.81139 18.5209 4.65222L16.9996 6.39642L15.4783 4.65222C13.9976 2.95459 11.9894 2.00088 9.89541 2.00088C7.80142 2.00088 5.79319 2.95459 4.31251 4.65222C2.83184 6.34984 2 8.65231 2 11.0531C2 13.4539 2.83184 15.7564 4.31251 17.454L16.9996 32L29.6867 17.454C30.4201 16.6136 31.0019 15.6157 31.3988 14.5174C31.7957 13.4191 32 12.2419 32 11.0531C32 9.86428 31.7957 8.68709 31.3988 7.5888C31.0019 6.49052 30.4201 5.49265 29.6867 4.65222Z" stroke="#1E1E1E" stroke-width="4" stroke-linecap="round" stroke-linejoin="round"/>
</svg>
