<svg width="27" height="32" viewBox="0 0 27 32" fill="none" xmlns="http://www.w3.org/2000/svg">
<path d="M25 13.4545C25 22.3636 13.5 30 13.5 30C13.5 30 2 22.3636 2 13.4545C2 10.4166 3.2116 7.5031 5.36827 5.35496C7.52494 3.20681 10.45 2 13.5 2C16.55 2 19.4751 3.20681 21.6317 5.35496C23.7884 7.5031 25 10.4166 25 13.4545Z" stroke="#1E1E1E" stroke-width="3" stroke-linecap="round" stroke-linejoin="round"/>
<path d="M13.5 17.2727C15.6171 17.2727 17.3333 15.5633 17.3333 13.4545C17.3333 11.3458 15.6171 9.63636 13.5 9.63636C11.3829 9.63636 9.66667 11.3458 9.66667 13.4545C9.66667 15.5633 11.3829 17.2727 13.5 17.2727Z" stroke="#1E1E1E" stroke-width="3" stroke-linecap="round" stroke-linejoin="round"/>
</svg>
