<svg width="30" height="36" viewBox="0 0 30 36" fill="none" xmlns="http://www.w3.org/2000/svg">
<path d="M0 30.6V27H3.75V14.4C3.75 11.91 4.53125 9.705 6.09375 7.785C7.65625 5.835 9.6875 4.56 12.1875 3.96V2.7C12.1875 1.95 12.4531 1.32 12.9844 0.809998C13.5469 0.269999 14.2188 0 15 0C15.7813 0 16.4375 0.269999 16.9688 0.809998C17.5312 1.32 17.8125 1.95 17.8125 2.7V3.96C20.3125 4.56 22.3438 5.835 23.9062 7.785C25.4688 9.705 26.25 11.91 26.25 14.4V27H30V30.6H0ZM15 36C13.9688 36 13.0781 35.655 12.3281 34.965C11.6094 34.245 11.25 33.39 11.25 32.4H18.75C18.75 33.39 18.375 34.245 17.625 34.965C16.9062 35.655 16.0312 36 15 36ZM7.5 27H22.5V14.4C22.5 12.42 21.7656 10.725 20.2969 9.315C18.8281 7.905 17.0625 7.2 15 7.2C12.9375 7.2 11.1719 7.905 9.70312 9.315C8.23438 10.725 7.5 12.42 7.5 14.4V27Z" fill="#1D1B20"/>
</svg>
