<svg width="31" height="30" viewBox="0 0 31 30" fill="none" xmlns="http://www.w3.org/2000/svg">
<path d="M2 2H6.90909L10.1982 18.5781C10.3104 19.1481 10.6178 19.6601 11.0665 20.0246C11.5153 20.389 12.0768 20.5826 12.6527 20.5714H24.5818C25.1578 20.5826 25.7193 20.389 26.168 20.0246C26.6167 19.6601 26.9241 19.1481 27.0364 18.5781L29 8.19048H8.13636M13.0455 26.7619C13.0455 27.4457 12.496 28 11.8182 28C11.1404 28 10.5909 27.4457 10.5909 26.7619C10.5909 26.0781 11.1404 25.5238 11.8182 25.5238C12.496 25.5238 13.0455 26.0781 13.0455 26.7619ZM26.5455 26.7619C26.5455 27.4457 25.996 28 25.3182 28C24.6404 28 24.0909 27.4457 24.0909 26.7619C24.0909 26.0781 24.6404 25.5238 25.3182 25.5238C25.996 25.5238 26.5455 26.0781 26.5455 26.7619Z" stroke="#1E1E1E" stroke-width="3.5" stroke-linecap="round" stroke-linejoin="round"/>
</svg>
