<svg width="29" height="29" viewBox="0 0 29 29" fill="none" xmlns="http://www.w3.org/2000/svg">
<path d="M26.9992 20.7173V24.4808C27.0006 24.8302 26.9289 25.176 26.7887 25.4961C26.6484 25.8163 26.4428 26.1036 26.1848 26.3398C25.9268 26.576 25.6223 26.7558 25.2907 26.8678C24.959 26.9797 24.6076 27.0213 24.259 26.9898C20.391 26.5704 16.6755 25.2513 13.4111 23.1385C10.374 21.2124 7.79908 18.6426 5.86917 15.6115C3.74483 12.3387 2.4228 8.6126 2.0102 4.73494C1.97879 4.38803 2.0201 4.03839 2.1315 3.70828C2.2429 3.37818 2.42196 3.07484 2.65726 2.81758C2.89256 2.56032 3.17896 2.35478 3.49822 2.21404C3.81748 2.0733 4.1626 2.00045 4.51162 2.00012H8.2826C8.89263 1.99413 9.48402 2.20972 9.94656 2.60671C10.4091 3.00371 10.7112 3.55501 10.7966 4.15787C10.9557 5.36227 11.2509 6.54484 11.6765 7.68302C11.8456 8.13204 11.8822 8.62003 11.782 9.08917C11.6817 9.55831 11.4488 9.98893 11.1108 10.33L9.51445 11.9232C11.3039 15.0639 13.9095 17.6644 17.0564 19.4503L18.6528 17.857C18.9946 17.5197 19.426 17.2873 19.8961 17.1872C20.3662 17.0872 20.8551 17.1237 21.305 17.2925C22.4455 17.7172 23.6304 18.0118 24.8372 18.1707C25.4478 18.2566 26.0054 18.5636 26.4041 19.0331C26.8027 19.5027 27.0145 20.1021 26.9992 20.7173Z" stroke="#1E1E1E" stroke-width="3" stroke-linecap="round" stroke-linejoin="round"/>
</svg>
