<svg width="24" height="24" viewBox="0 0 24 24" fill="none" xmlns="http://www.w3.org/2000/svg">
<path d="M12 24C18.6274 24 24 18.6274 24 12C24 5.37258 18.6274 0 12 0C5.37258 0 0 5.37258 0 12C0 18.6274 5.37258 24 12 24Z" fill="#C3271A"/>
<path d="M19.1327 9.73237C19.0442 8.39672 17.8645 7.33933 16.4193 7.22802C16.2129 7.2002 15.977 7.2002 15.7705 7.2002C13.2341 7.2002 10.6977 7.2002 8.16128 7.2002C7.95483 7.2002 7.77787 7.2002 7.57142 7.22802C6.18525 7.28367 4.94654 8.36889 4.82856 9.7602C4.82856 9.89933 4.79907 10.0663 4.79907 10.2054C4.79907 11.4019 4.79907 12.6263 4.79907 13.8228C4.79907 13.9619 4.79907 14.0732 4.82856 14.2124C4.94654 15.548 6.00829 16.6054 7.42396 16.7724C7.68939 16.8002 7.92534 16.8002 8.19078 16.8002C9.45898 16.8002 10.6977 16.8002 11.9659 16.8002C13.2341 16.8002 14.4728 16.8002 15.741 16.8002C15.7705 16.8002 15.7705 16.8002 15.8 16.8002C16.0654 16.8002 16.3604 16.8002 16.6258 16.7445C17.9825 16.5498 19.0737 15.5202 19.1327 14.2402C19.2212 12.7098 19.2212 11.2072 19.1327 9.73237ZM14.1189 12.1811C14.0304 12.2367 13.9124 12.2924 13.7945 12.348C12.7327 12.8211 11.671 13.2941 10.6092 13.795C10.1668 13.9898 9.98986 13.9341 10.0193 13.4611C10.0193 13.2106 10.0193 12.988 10.0193 12.7376C10.0193 12.4872 10.0193 12.2645 10.0193 12.0141C10.0193 11.5132 10.0193 11.0124 10.0193 10.5115C10.0193 10.4002 10.0488 10.2889 10.0488 10.1776C10.0783 10.0941 10.1373 10.0663 10.2258 10.0663C10.3143 10.0663 10.3733 10.0941 10.4617 10.1219C11.6415 10.6785 12.7917 11.235 13.9714 11.7915C14.0304 11.8193 14.0599 11.8472 14.1189 11.875C14.2369 11.9585 14.2074 12.1254 14.1189 12.1811Z" fill="white"/>
</svg>
